<?xml version="1.0" encoding="UTF-8" standalone="no"?>
<!-- Generator: Adobe Illustrator 13.0.0, SVG Export Plug-In . SVG Version: 6.00 Build 14948)  -->

<svg
   xmlns:dc="http://purl.org/dc/elements/1.1/"
   xmlns:cc="http://creativecommons.org/ns#"
   xmlns:rdf="http://www.w3.org/1999/02/22-rdf-syntax-ns#"
   xmlns:svg="http://www.w3.org/2000/svg"
   xmlns="http://www.w3.org/2000/svg"
   xmlns:sodipodi="http://sodipodi.sourceforge.net/DTD/sodipodi-0.dtd"
   xmlns:inkscape="http://www.inkscape.org/namespaces/inkscape"
   version="1.1"
   id="Layer_1"
   x="0px"
   y="0px"
   width="200"
   height="200"
   viewBox="0 0 200 200"
   enable-background="new 0 0 293.133 146.241"
   xml:space="preserve"
   inkscape:version="0.48.2 r9819"
   sodipodi:docname="fliege_bereinigt.svg"
   inkscape:export-filename="/Users/joscha/Documents/workspace/mailbutler/resources/tie200x200.png"
   inkscape:export-xdpi="90"
   inkscape:export-ydpi="90"><metadata
   id="metadata31"><rdf:RDF><cc:Work
       rdf:about=""><dc:format>image/svg+xml</dc:format><dc:type
         rdf:resource="http://purl.org/dc/dcmitype/StillImage" /><dc:title></dc:title></cc:Work></rdf:RDF></metadata><defs
   id="defs29" /><sodipodi:namedview
   pagecolor="#ffffff"
   bordercolor="#666666"
   borderopacity="1"
   objecttolerance="10"
   gridtolerance="10"
   guidetolerance="10"
   inkscape:pageopacity="0"
   inkscape:pageshadow="2"
   inkscape:window-width="1440"
   inkscape:window-height="789"
   id="namedview27"
   showgrid="false"
   inkscape:zoom="2.02"
   inkscape:cx="82.080908"
   inkscape:cy="123.59537"
   inkscape:window-x="0"
   inkscape:window-y="0"
   inkscape:window-maximized="1"
   inkscape:current-layer="g3863"
   fit-margin-top="0"
   fit-margin-left="0"
   fit-margin-right="0"
   fit-margin-bottom="0" />

<g
   inkscape:groupmode="layer"
   id="layer2"
   inkscape:label="wings"
   style="display:inline"
   transform="translate(-1.0712792,54.958023)" /><g
   inkscape:groupmode="layer"
   id="layer3"
   inkscape:label="body"
   style="display:inline"
   transform="translate(-1.0712792,54.958023)" /><g
   inkscape:groupmode="layer"
   id="layer1"
   inkscape:label="wrinkles"
   style="display:inline"
   transform="translate(-1.0712792,54.958023)" /><g
   style="display:inline"
   inkscape:label="wrap"
   id="g3863"
   inkscape:groupmode="layer"
   transform="translate(-1.0712792,54.958023)"><g
     id="g3887"
     transform="matrix(0.58446816,0,0,0.58446816,15.445151,3.7892921)"
     inkscape:export-filename="/Users/joscha/Documents/workspace/mailbutler/resources/tie512.png"
     inkscape:export-xdpi="158.42"
     inkscape:export-ydpi="158.42"><g
       style="fill:#111111;fill-opacity:1;display:inline"
       id="g3841"
       transform="translate(-1.7120865e-8,2.3304199e-6)">
	
	
	
	
	
	
	
	
	
	
	
		<path
   id="path3881"
   stroke-miterlimit="10"
   d="M 190.44853,31.935191 C 208.71864,20.426168 250.00132,8.5150328 278.589,2.998 c 3.948,8.397 4.37347,17.916596 2.01127,26.196799 0,0 -43.2533,-14.215005 -90.15174,2.740392 z M 25.5905,25.278202 C 51.093432,23.575284 95.324272,32.403147 117.26121,41.83403 100.32527,17.305731 56.726981,9.3515817 24.84,5.798 c -1.530481,5.737642 -1.454086,12.840226 0.7505,19.480202 z"
   inkscape:connector-curvature="0"
   style="fill:#111111;fill-opacity:1;stroke:#000000;stroke-width:3.60000014;stroke-linecap:round;stroke-linejoin:round;stroke-miterlimit:10;stroke-dasharray:none"
   sodipodi:nodetypes="cccccccc" />
</g><g
       style="fill:#151515;fill-opacity:1;display:inline"
       id="g3"
       transform="translate(-1.7120865e-8,2.3304199e-6)">
	
	
	
	
	
	
	
	
	
	
	
		<path
   id="path3853"
   sodipodi:nodetypes="ccccccccc"
   style="fill:#151515;fill-opacity:1;stroke:#000000;stroke-width:3.60000014;stroke-linecap:round;stroke-linejoin:round;stroke-miterlimit:10;stroke-dasharray:none"
   inkscape:connector-curvature="0"
   d="M 127.7495,46.682 C 92.809903,28.473638 36.550385,20.694263 2.8712788,28.02583 12.547745,83.467 30.788,121.102 48.831,141.143 c 38.185,-6.747 64.025,-22.241 77.519,-46.531 11.21399,-2.282994 22.16888,-2.381003 32.437,5e-4 18.84936,21.24325 60.676,40.4335 102.909,48.6295 14.043,-27.839 23.49,-64.823 28.438,-110.905 -43.77922,-14.256139 -90.45947,-11.588091 -127.849,14.344 0,0 -16.85398,10.189637 -34.5355,0.001 z"
   stroke-miterlimit="10" />
</g><g
       id="g3833"
       style="display:inline"
       transform="translate(-1.7120865e-8,2.3304199e-6)">
	
	
	
	
	
	
	
	
	
	
	
		<path
   stroke-miterlimit="10"
   d="M 122.10381,63.749532 C 104.61286,66.195133 68.327799,56.382739 56.629,54.729 m 150.988,35.135 c -14.895,0.1 -29.738,-3.849 -44.532,-11.896 M 67.523,94.812 c 19.145316,-0.293609 41.53323,-4.261033 57.0275,-9.9945 M 216.463,47.231 c -17.442,1.399 -34.886,6.447 -52.329,15.144"
   id="path3835"
   inkscape:connector-curvature="0"
   style="fill:none;stroke:#000000;stroke-width:3.60000014;stroke-linecap:round;stroke-linejoin:round;stroke-miterlimit:10;stroke-dasharray:none"
   sodipodi:nodetypes="cccccccc" />
</g><g
       style="fill:#1a1a1a"
       id="g3865">
	
	
	
	
	
	
	
	
	
	
	
		<path
   sodipodi:nodetypes="cccccccc"
   style="fill:#1a1a1a;stroke:#000000;stroke-width:3.60000014;stroke-linecap:round;stroke-linejoin:round;stroke-miterlimit:10;stroke-dasharray:none"
   inkscape:connector-curvature="0"
   id="path3867"
   d="m 158.787,94.6125 c -10.26812,-2.381503 -21.22301,-3.40709 -32.25917,0.274664 -3.40495,-9.152118 -4.68634,-41.25419 1.20781,-48.28563 10.07278,6.054715 21.86072,7.769762 34.54936,0.08047 M 158.786,94.612 c 6.12219,-14.408262 6.25141,-33.71725 3.499,-47.931 m -17.14113,45.276437 c -2.499,-13.994 -3.47353,-25.684305 -2.22453,-39.629305"
   stroke-miterlimit="10" />
</g></g></g></svg>