<?xml version="1.0" encoding="UTF-8" standalone="no"?>
<svg
   xmlns:dc="http://purl.org/dc/elements/1.1/"
   xmlns:cc="http://creativecommons.org/ns#"
   xmlns:rdf="http://www.w3.org/1999/02/22-rdf-syntax-ns#"
   xmlns:svg="http://www.w3.org/2000/svg"
   xmlns="http://www.w3.org/2000/svg"
   xmlns:xlink="http://www.w3.org/1999/xlink"
   xmlns:sodipodi="http://sodipodi.sourceforge.net/DTD/sodipodi-0.dtd"
   xmlns:inkscape="http://www.inkscape.org/namespaces/inkscape"
   width="750"
   height="750"
   id="svg3086"
   version="1.1"
   inkscape:version="0.48.2 r9819"
   sodipodi:docname="clker_bow-tie-red.svg"
   inkscape:export-filename="/Users/joscha/Documents/workspace/mailbutler/extension/chrome/images/tie48x48.png"
   inkscape:export-xdpi="5.7600002"
   inkscape:export-ydpi="5.7600002">
  <metadata
     id="metadata3131">
    <rdf:RDF>
      <cc:Work
         rdf:about="">
        <dc:format>image/svg+xml</dc:format>
        <dc:type
           rdf:resource="http://purl.org/dc/dcmitype/StillImage" />
        <dc:title></dc:title>
      </cc:Work>
    </rdf:RDF>
  </metadata>
  <sodipodi:namedview
     pagecolor="#ffffff"
     bordercolor="#666666"
     borderopacity="1"
     objecttolerance="10"
     gridtolerance="10"
     guidetolerance="10"
     inkscape:pageopacity="0"
     inkscape:pageshadow="2"
     inkscape:window-width="943"
     inkscape:window-height="696"
     id="namedview3129"
     showgrid="false"
     inkscape:zoom="0.44250002"
     inkscape:cx="372.04724"
     inkscape:cy="353.27772"
     inkscape:window-x="0"
     inkscape:window-y="0"
     inkscape:window-maximized="0"
     inkscape:current-layer="svg3086" />
  <defs
     id="defs3088">
    <linearGradient
       y2="758.14929"
       y1="810.21936"
       xlink:href="#linearGradient2212"
       x2="245.75005"
       x1="180.65712"
       id="linearGradient4128"
       gradientUnits="userSpaceOnUse"
       gradientTransform="matrix(0.164181,0,0,0.279005,370.379,341.0819)" />
    <linearGradient
       y2="665.02673"
       y1="810.21936"
       xlink:href="#linearGradient2212"
       x2="157.14334"
       x1="244.28572"
       id="linearGradient4131"
       gradientUnits="userSpaceOnUse"
       gradientTransform="matrix(0.164181,0,0,0.279005,370.8438,332.0167)" />
    <linearGradient
       y2="691.37769"
       y1="802.69507"
       xlink:href="#linearGradient2212"
       x2="256.58017"
       x1="337.4357"
       id="linearGradient4134"
       gradientUnits="userSpaceOnUse"
       gradientTransform="matrix(0.164181,0,0,0.279005,305.0635,339.2224)" />
    <linearGradient
       y2="624.79266"
       y1="810.21936"
       xlink:href="#linearGradient2212"
       x2="203.70448"
       x1="244.28572"
       id="linearGradient4138"
       gradientUnits="userSpaceOnUse"
       gradientTransform="matrix(0.137094,0,0,0.237759,313.5525,379.6629)" />
    <linearGradient
       id="linearGradient2212">
      <stop
         stop-color="#000000"
         offset="0"
         id="stop2214" />
      <stop
         stop-color="#000000"
         stop-opacity="0"
         offset="1"
         id="stop2216" />
    </linearGradient>
    <linearGradient
       y2="718.16046"
       y1="810.21936"
       xlink:href="#linearGradient2212"
       x2="225.92958"
       x1="244.28572"
       id="linearGradient2233"
       gradientUnits="userSpaceOnUse"
       gradientTransform="matrix(0.451528,0,0,0.783074,122.3746,-32.89941)" />
    <linearGradient
       y2="718.16046"
       y1="810.21936"
       xlink:href="#linearGradient2212"
       x2="225.92958"
       x1="244.28572"
       id="linearGradient3991"
       gradientUnits="userSpaceOnUse"
       gradientTransform="matrix(0.540741,0,0,0.918919,94.41544,-166.0926)" />
    <linearGradient
       y2="728.99078"
       y1="810.21936"
       xlink:href="#linearGradient2212"
       x2="222.39273"
       x1="244.28572"
       id="linearGradient3995"
       gradientUnits="userSpaceOnUse"
       gradientTransform="matrix(0.540741,0,0,0.918919,311.0668,-189.8248)" />
    <linearGradient
       y2="758.14929"
       y1="810.21936"
       xlink:href="#linearGradient2212"
       x2="245.75005"
       x1="244.28572"
       id="linearGradient3999"
       gradientUnits="userSpaceOnUse"
       gradientTransform="matrix(0.540741,0,0,0.918919,309.5357,-159.9682)" />
    <linearGradient
       y2="718.16046"
       y1="810.21936"
       xlink:href="#linearGradient2212"
       x2="225.92958"
       x1="244.28572"
       id="linearGradient4029"
       gradientUnits="userSpaceOnUse"
       gradientTransform="matrix(0.451528,0,0,0.783074,122.3746,-32.89941)" />
    <linearGradient
       y2="718.16046"
       y1="810.21936"
       xlink:href="#linearGradient2212"
       x2="225.92958"
       x1="244.28572"
       id="linearGradient4031"
       gradientUnits="userSpaceOnUse"
       gradientTransform="matrix(0.540741,0,0,0.918919,94.41544,-166.0926)" />
    <linearGradient
       y2="728.99078"
       y1="810.21936"
       xlink:href="#linearGradient2212"
       x2="222.39273"
       x1="244.28572"
       id="linearGradient4033"
       gradientUnits="userSpaceOnUse"
       gradientTransform="matrix(0.540741,0,0,0.918919,311.0668,-189.8248)" />
    <linearGradient
       y2="758.14929"
       y1="810.21936"
       xlink:href="#linearGradient2212"
       x2="245.75005"
       x1="244.28572"
       id="linearGradient4035"
       gradientUnits="userSpaceOnUse"
       gradientTransform="matrix(0.540741,0,0,0.918919,309.5357,-159.9682)" />
    <linearGradient
       y2="758.14929"
       y1="857.73218"
       xlink:href="#linearGradient2212"
       x2="245.75005"
       x1="101.8843"
       id="linearGradient1564"
       gradientUnits="userSpaceOnUse"
       gradientTransform="matrix(0.631509,0,0,1.073171,344.7216,-554.2534)" />
    <linearGradient
       y2="707.90417"
       y1="810.21936"
       xlink:href="#linearGradient2212"
       x2="202.43771"
       x1="244.28572"
       id="linearGradient1567"
       gradientUnits="userSpaceOnUse"
       gradientTransform="matrix(0.631509,0,0,1.073171,346.5094,-589.122)" />
    <linearGradient
       y2="691.37769"
       y1="859.4787"
       xlink:href="#linearGradient2212"
       x2="256.58017"
       x1="428.02444"
       id="linearGradient1570"
       gradientUnits="userSpaceOnUse"
       gradientTransform="matrix(0.631509,0,0,1.073171,93.49065,-561.4058)" />
    <linearGradient
       y2="703.66602"
       y1="810.21936"
       xlink:href="#linearGradient2212"
       x2="213.13815"
       x1="244.28572"
       id="linearGradient1574"
       gradientUnits="userSpaceOnUse"
       gradientTransform="matrix(0.527321,0,0,0.914521,126.1429,-405.8546)" />
    <linearGradient
       y2="396.81326"
       y1="549.89972"
       xlink:href="#linearGradient2212"
       x2="158.16956"
       x1="168.62456"
       id="linearGradient1593"
       gradientTransform="scale(1.5709993,0.63653752)"
       gradientUnits="userSpaceOnUse" />
    <linearGradient
       y2="307.09012"
       y1="590.4856"
       xlink:href="#linearGradient2212"
       x2="168.99184"
       x1="237.91245"
       id="linearGradient1595"
       gradientTransform="scale(1.5709187,0.63657017)"
       gradientUnits="userSpaceOnUse" />
    <linearGradient
       y2="324.53925"
       y1="516.63733"
       xlink:href="#linearGradient2212"
       x2="276.82178"
       x1="291.92746"
       id="linearGradient1597"
       gradientTransform="scale(1.7495003,0.57159177)"
       gradientUnits="userSpaceOnUse" />
    <linearGradient
       y2="428.49164"
       y1="595.43896"
       xlink:href="#linearGradient2212"
       x2="326.38382"
       x1="268.22562"
       id="linearGradient1599"
       gradientTransform="scale(1.562161,0.64013887)"
       gradientUnits="userSpaceOnUse" />
  </defs>
  <g
     id="g3113"
     transform="translate(0.663063,120.2744)">
    <title
       id="title3115">Layer 1</title>
    <g
       id="layer1">
      <g
         id="g1581">
        <path
           stroke-miterlimit="4"
           id="path1543"
           d="m 446.42587,201.77066 c -13.14209,-1.87746 27.66855,-21.28412 39.6189,-27.06584 37.8616,-18.31787 55.78683,-33.81423 93.52689,-49.98851 23.30639,-9.98844 38.36236,1.25413 62.07861,-8.23239 15.23529,-6.0941 44.41485,11.54384 51.0224,24.75889 7.24286,14.48578 14.00873,33.64202 10.25384,48.66143 -7.29455,29.17826 -10.89074,55.74298 -15.14544,85.52596 -0.92475,6.47336 -1.28589,36.4556 -2.36091,42.90571 -4.82824,28.96933 -4.65716,47.78061 -14.04992,75.95874 -13.09528,39.28607 -60.78028,-14.34305 -89.42987,-21.25617 -8.89148,-2.14548 -38.76728,-11.78885 -75.10239,-36.44778 -14.27451,-9.68744 -34.17154,-22.01236 -56.20715,-34.4419 -2.92032,-50.46094 -1.07505,-73.66231 -1.61252,-74.19981"
           inkscape:connector-curvature="0"
           style="fill:#ff0000;fill-rule:evenodd;stroke-width:4;stroke-miterlimit:4" />
        <path
           stroke-miterlimit="4"
           id="path1545"
           d="m 323.90305,202.48489 c 13.25915,-1.79818 -38.3769,-25.35179 -50.43369,-30.88952 -38.19879,-17.54474 -55.87245,-35.82877 -93.46574,-52.34905 -21.77025,-9.56686 -42.01535,-7.72243 -64.34289,-10.97446 -20.717317,-3.01752 -37.259706,15.14324 -43.926095,27.80057 -7.307388,13.87444 -23.055405,35.16512 -24.498085,66.9316 -1.307091,28.78018 0.152279,40.49715 2.786701,69.20401 1.571301,17.12234 4.87941,26.9729 5.963989,45.50662 1.643612,28.08612 -0.658428,59.34973 26.080387,80.59244 30.634783,24.33789 83.673313,-15.96179 112.578003,-23.41077 8.90581,-2.29513 59.56937,-30.58652 68.32953,-36.82379 13.92398,-9.91397 53.71835,-19.77313 61.98315,-33.65222 6.0503,-10.16025 4.66083,0.75845 5.20313,0.24362"
           inkscape:connector-curvature="0"
           style="fill:#ff0000;fill-rule:evenodd;stroke-width:3.80046391;stroke-miterlimit:4" />
        <path
           stroke-miterlimit="4"
           id="path1547"
           d="M 111.33097,99.035805 C 95.466019,99.455864 68.552338,116.939 62.30352,129.43671 c -7.49371,14.98744 -20.235481,34.1055 -21.714931,68.42028 -1.340401,31.08895 1.855862,47.61109 -0.46534,76.94654 -1.464451,18.50818 7.306473,38.04999 11.692352,48.14233 -1.006142,10.60056 8.242039,66.46512 33.854389,83.44745 23.5591,15.62094 80.47027,-18.65918 110.11199,-26.70575 9.13291,-2.47919 61.0882,-34.9769 70.07172,-41.71454 14.27899,-10.70923 46.78564,-19.19583 61.75073,-26.67834 0.011,-0.006 0.0256,-0.0308 0.0364,-0.0365 0.0536,-0.0294 0.13217,-0.0756 0.18252,-0.10947 0.55707,-0.38879 0.93674,-1.04623 1.42334,-1.53284 l 0,-108.42863 c 13.5972,-1.94249 -39.35022,-27.41164 -51.71441,-33.39356 -39.17273,-18.95224 -58.19825,-33.86889 -96.75008,-51.71439 -22.32532,-10.33433 -42.3224,-12.22789 -65.07178,-16.678551 -1.43183,-0.28009 -2.88789,-0.404449 -4.37949,-0.364937 z m -4.14133,11.533145 c -10.082317,2.61644 45.07167,-1.73559 32.24131,-2.35371 -21.82386,-1.05146 29.6174,17.57549 50.69352,26.90633 36.39465,16.11267 31.12236,18.62652 93.13682,42.8909 11.97724,4.68634 55.40921,22.13315 42.57282,23.88701 l -2.68219,104.17633 c -0.50858,0.48642 -0.90592,1.13037 -1.53281,1.45981 -0.0102,0.005 -0.0261,0.0315 -0.0365,0.0365 -14.12768,6.75596 -40.9996,11.06931 -54.47961,20.73868 -8.48087,6.08338 -53.96173,40.95197 -62.81819,41.9061 -34.24155,3.6889 -87.73848,45.92731 -109.979336,31.82321 C 70.126298,386.70679 68.120393,376.31128 67.088471,348.89136 66.401337,330.63352 60.197609,298.16437 56.674752,282.84635 50.60167,256.43961 51.92846,215.90122 53.193852,187.83115 54.590561,156.84847 69.753769,156.68439 79.032303,135.33151 89.686691,110.81236 92.301491,111.1996 107.18964,110.56896 z"
           inkscape:connector-curvature="0"
           style="fill:#000000;fill-rule:evenodd;stroke:#000000;stroke-width:1.16786206;stroke-miterlimit:4" />
        <path
           stroke-miterlimit="4"
           id="path1549"
           d="m 658.49316,107.80329 c -1.27581,0.0606 -56.77484,3.7343 -80.08123,13.72273 -37.74006,16.17431 -53.92188,31.66558 -91.78348,49.98349 -11.95041,5.78173 -58.69489,20.65385 -45.55274,22.53128 l 7.66715,109.32396 c 0.47873,0.4787 36.12637,34.60339 49.92743,33.91613 10.84006,-0.53979 55.82782,34.11783 64.83777,32.54215 14.82336,-2.59241 100.5404,67.45029 113.63574,28.16421 9.3927,-28.17819 11.80389,-60.78537 16.63214,-89.75467 1.07501,-6.45013 1.99036,-39.02978 2.91504,-45.50314 4.25476,-29.78297 3.61011,-35.93359 10.9046,-65.11186 3.75488,-15.01942 1.11475,-47.5616 -6.12811,-62.04739 -6.14295,-12.28588 -29.56128,-16.47084 -42.97431,-27.76689 z m -12.35467,12.11717 c 15.11072,-0.51252 38.40539,11.53581 43.86395,23.03552 6.46308,13.61609 13.40289,43.25535 10.05231,57.373 -6.50922,27.42639 -12.00617,40.2254 -15.80286,68.22018 -0.82519,6.08472 -1.93316,31.82157 -2.89245,37.88443 -4.30835,27.23001 -10.31385,53.83289 -18.69532,80.31922 -11.68536,36.9273 -83.17975,-32.29642 -113.37133,-32.29642 -8.16187,-3e-5 -27.65369,-17.10007 -35.40168,-23.22119 -12.31521,-9.72931 -63.12304,-46.87616 -69.41089,-32.68985 -7.15771,16.14908 -20.38513,-1.01154 -22.48297,16.28357 l 29.12787,-111.46639 c -11.7272,-1.76471 33.95804,-24.86587 44.62177,-30.30049 33.78528,-17.21806 51.51013,-24.00474 85.18689,-39.20793 20.79712,-9.38871 33.77771,-6.03953 54.94055,-14.95642 1.00903,-0.42514 4.73206,2.79217 10.26416,1.02277 z"
           inkscape:connector-curvature="0"
           style="fill:#000000;fill-rule:evenodd;stroke-width:4;stroke-miterlimit:4" />
        <path
           stroke-miterlimit="4"
           id="path1551"
           d="m 331.85556,187.46617 c -11.18066,8.28635 -10.92895,23.86435 -13.34701,38.37259 -2.65702,15.94231 0,35.44621 0,51.71959 0,10.4559 3.10043,24.55286 6.67352,31.69907 8.01147,16.02294 37.17441,11.7727 53.38797,15.01538 11.77679,2.35537 47.0668,1.49218 56.7247,-3.33673 15.00708,-7.50354 15.04352,-21.80143 20.02051,-41.70936 3.893,-15.57199 3.33673,-38.57043 3.33673,-55.05635 0,-12.17122 -7.85599,-31.21322 -15.01535,-38.37259 -12.66416,-12.66414 -53.04123,-5.90895 -70.07172,-8.34187 -7.10245,-1.01465 -28.45636,0.18801 -41.70935,10.01027 z"
           inkscape:connector-curvature="0"
           style="fill:#ff0000;fill-rule:evenodd;stroke:#000000;stroke-width:6.42324114;stroke-miterlimit:4" />
        <path
           stroke-miterlimit="4"
           id="path1553"
           d="m 225.76929,297.24185 38.28247,-13.13653 32.31003,-16.18412 20.52661,-5.49798 0.7261,6.71411 c 0,0 -18.62945,2.14715 -43.5173,14.1289 -24.56294,6.92459 -56.03418,19.49326 -56.03418,19.49326 l 7.70627,-5.51764 z"
           inkscape:connector-curvature="0"
           style="fill:url(#linearGradient1593);stroke-width:4;stroke-linecap:round;stroke-miterlimit:4" />
        <path
           stroke-miterlimit="4"
           id="path1555"
           d="m 319.43106,282.29196 c 33.04697,-18.70431 134.18518,-0.58197 134.18518,-0.58197 0,0 9.95831,10.689 -12.51681,36.90146 -30.62046,21.26068 -115.82825,-4.47028 -115.82825,-4.47028 0,0 -5.44708,-19.00628 -5.84012,-31.84921 z"
           inkscape:connector-curvature="0"
           style="fill:#af0000;fill-opacity:0.222222;stroke-width:5.5;stroke-miterlimit:4" />
        <path
           stroke-miterlimit="4"
           id="path1557"
           d="m 214.41154,210.1106 26.17698,6.04202 19.02449,4.25387 56.7684,14.11161 0.15216,16.97455 -12.8277,-15.08281 -89.29433,-26.29924 z"
           inkscape:connector-curvature="0"
           style="fill:url(#linearGradient1595);stroke-width:4;stroke-linecap:round;stroke-miterlimit:4" />
        <path
           stroke-miterlimit="4"
           id="path1559"
           d="m 463.85416,233.35615 17.23638,-3.79264 14.5542,-1.11049 42.46341,-14.49832 -46.3389,19.65675 -36.07324,7.26871 8.15814,-7.524 z"
           inkscape:connector-curvature="0"
           style="fill:url(#linearGradient1597);stroke-width:4;stroke-linecap:round;stroke-miterlimit:4" />
        <path
           stroke-miterlimit="4"
           id="path1561"
           d="m 462.06604,268.22446 5.61362,6.93606 17.23632,4.25388 21.00605,8.74725 16.24521,8.03397 -68.25934,-20.44718 8.15814,-7.52398 z"
           inkscape:connector-curvature="0"
           style="fill:url(#linearGradient1599);stroke-width:4;stroke-linecap:round;stroke-miterlimit:4" />
      </g>
    </g>
  </g>
</svg>
